<svg width="96" height="58" viewBox="0 0 96 58" fill="none" xmlns="http://www.w3.org/2000/svg">
<path d="M70.657 0.108736C64.995 0.00300647 59.884 2.37839 56.314 6.22693C54.717 7.94881 55.216 10.7411 57.287 11.8356C58.701 12.5848 60.457 12.325 61.55 11.1499C63.736 8.79665 66.845 7.32651 70.294 7.32651C77.007 7.32651 82.43 12.8899 82.281 19.6938C82.181 24.2361 79.506 28.3565 75.45 30.3362C69.35 33.3137 63.246 29.4007 57.913 26.544C50.269 22.4478 42.625 18.3515 34.981 14.2563C33.266 13.338 31.138 14.0005 30.236 15.7345C29.345 17.4463 29.983 19.5609 31.669 20.4822C33.994 21.752 36.831 23.4225 37.314 23.6783C40.429 25.3246 43.542 26.972 46.656 28.6184C50.495 30.6484 54.302 32.7408 58.181 34.6912C62.101 36.6618 65.816 38.7321 70.294 38.7321C81.027 38.7321 89.697 29.8277 89.438 18.9446C89.194 8.66273 80.853 0.299048 70.657 0.108736Z" fill="#08C177"/>
<path d="M25.329 38.7291C30.991 38.8348 36.102 36.4595 39.672 32.6099C41.269 30.889 40.77 28.0958 38.699 27.0012L38.587 26.9418C37.196 26.2068 35.51 26.533 34.436 27.688C32.25 30.0402 29.141 31.5103 25.692 31.5103C18.979 31.5103 13.556 25.948 13.705 19.144C13.805 14.6017 16.48 10.4803 20.536 8.50165C26.636 5.5231 32.74 9.4371 38.072 12.2938C45.717 16.39 53.361 20.4853 61.005 24.5815C62.72 25.4999 64.848 24.8373 65.75 23.1033C66.64 21.3915 66.003 19.277 64.317 18.3556C61.992 17.0858 59.155 15.4153 58.672 15.1596C55.557 13.5122 52.443 11.8658 49.33 10.2185C45.491 8.18949 41.684 6.09706 37.805 4.14661C33.885 2.17501 30.169 0.104736 25.692 0.104736C14.959 0.104736 6.28901 9.00915 6.54801 19.8932C6.79201 30.1751 15.133 38.5388 25.329 38.7291Z" fill="#D7FFEF"/>
<path d="M15.4045 41.165H19.1325C20.0735 41.165 20.8135 41.3946 21.3525 41.8538C21.8935 42.313 22.1645 42.897 22.1645 43.6059C22.1645 44.64 21.5665 45.3338 20.3725 45.6882C20.9775 45.7768 21.4625 46.0407 21.8285 46.4777C22.1935 46.9157 22.3765 47.4222 22.3765 47.9962C22.3765 48.7212 22.1025 49.3082 21.5565 49.7563C21.0125 50.2024 20.2745 50.4249 19.3445 50.4249H15.4045V41.165ZM17.2645 42.5989V44.9995H18.9365C19.3495 44.9995 19.6765 44.8968 19.9165 44.6893C20.1585 44.4799 20.2805 44.1859 20.2805 43.8073C20.2805 43.4266 20.1585 43.1296 19.9165 42.9171C19.6765 42.7057 19.3495 42.5989 18.9365 42.5989H17.2645ZM17.2645 48.991H19.1325C19.5455 48.991 19.8775 48.8782 20.1285 48.6527C20.3785 48.4271 20.5045 48.116 20.5045 47.7182C20.5045 47.3215 20.3765 47.0083 20.1205 46.7798C19.8665 46.5492 19.5335 46.4334 19.1205 46.4334H17.2645V48.991Z" fill="#D7FFEF"/>
<path d="M28.7335 43.0742H30.5935V50.4249H28.7335V49.3092C28.2695 50.1147 27.5095 50.5175 26.4535 50.5175C25.6295 50.5175 24.9535 50.2416 24.4255 49.6878C23.8995 49.135 23.6375 48.3687 23.6375 47.3879V43.0742H25.4815V47.1221C25.4815 47.6971 25.6255 48.1391 25.9135 48.4472C26.2035 48.7564 26.5995 48.9104 27.1015 48.9104C27.6025 48.9104 27.9995 48.7564 28.2935 48.4472C28.5865 48.1391 28.7335 47.6971 28.7335 47.1221V43.0742Z" fill="#D7FFEF"/>
<path d="M34.3572 41.2053C34.3572 41.5225 34.2462 41.7923 34.0252 42.0149C33.8062 42.2354 33.5412 42.3452 33.2292 42.3452C32.9172 42.3452 32.6512 42.2354 32.4332 42.0149C32.2142 41.7923 32.1052 41.5225 32.1052 41.2053C32.1052 40.8861 32.2142 40.6162 32.4332 40.3957C32.6512 40.1732 32.9172 40.0614 33.2292 40.0614C33.5412 40.0614 33.8062 40.1732 34.0252 40.3957C34.2462 40.6162 34.3572 40.8861 34.3572 41.2053ZM32.3012 50.4249V43.0742H34.1612V50.4249H32.3012Z" fill="#D7FFEF"/>
<path d="M35.8701 50.4249V40.6052H37.7301V50.4249H35.8701Z" fill="#D7FFEF"/>
<path d="M44.0911 48.3345C44.4771 47.9508 44.6711 47.4232 44.6711 46.7516C44.6711 46.0779 44.4771 45.5493 44.0911 45.1646C43.7041 44.781 43.2511 44.5886 42.7311 44.5886C42.2131 44.5886 41.7641 44.78 41.3831 45.1606C41.0011 45.5392 40.8111 46.0658 40.8111 46.7395C40.8111 47.4111 41.0031 47.9418 41.3871 48.3304C41.7731 48.7171 42.2241 48.9104 42.7391 48.9104C43.2531 48.9104 43.7041 48.7191 44.0911 48.3345ZM39.9071 49.4622C39.2531 48.7513 38.9271 47.8431 38.9271 46.7395C38.9271 45.6338 39.2511 44.7286 39.8991 44.0247C40.5491 43.3219 41.3751 42.9695 42.3751 42.9695C43.3771 42.9695 44.1431 43.3843 44.6711 44.2141V40.6052H46.5151V50.4249H44.6711V49.1924C44.1161 50.0845 43.3471 50.5296 42.3631 50.5296C41.3791 50.5296 40.5601 50.1742 39.9071 49.4622Z" fill="#D7FFEF"/>
<path d="M51.1992 42.5304C50.8312 42.5304 50.5312 42.6261 50.2992 42.8164C50.0672 43.0077 49.9512 43.2705 49.9512 43.6059C49.9512 43.9422 50.0362 44.205 50.2072 44.3953C50.3772 44.5866 50.6032 44.7326 50.8832 44.8343C51.1652 44.934 51.4732 45.0236 51.8072 45.1042C52.1402 45.1847 52.4732 45.2834 52.8072 45.3982C53.1432 45.511 53.4512 45.652 53.7312 45.8211C54.0112 45.9903 54.2362 46.236 54.4072 46.5582C54.5802 46.8804 54.6672 47.2711 54.6672 47.7303C54.6672 48.4936 54.3652 49.1481 53.7632 49.6959C53.1632 50.2436 52.3642 50.5175 51.3672 50.5175C50.3692 50.5175 49.5632 50.2819 48.9472 49.8086C48.3332 49.3364 48.0272 48.6708 48.0272 47.8109H50.0032C50.0722 48.6245 50.5332 49.0313 51.3872 49.0313C51.8082 49.0313 52.1412 48.9215 52.3872 48.701C52.6322 48.4785 52.7552 48.1844 52.7552 47.8189C52.7552 47.4514 52.5922 47.1614 52.2672 46.9489C51.9412 46.7375 51.5482 46.5784 51.0872 46.4736C50.6282 46.3669 50.1652 46.238 49.6992 46.087C49.2322 45.9369 48.8362 45.6741 48.5112 45.2975C48.1882 44.9219 48.0272 44.4235 48.0272 43.8032C48.0272 42.9634 48.3292 42.2918 48.9352 41.7893C49.5402 41.2848 50.3192 41.0321 51.2712 41.0321C52.2252 41.0321 52.9922 41.2516 53.5712 41.6886C54.1522 42.1267 54.4692 42.7922 54.5232 43.6864H52.4912C52.4562 43.332 52.3242 43.052 52.0952 42.8446C51.8682 42.6352 51.5692 42.5304 51.1992 42.5304Z" fill="#D7FFEF"/>
<path d="M59.0097 48.8581H59.8937V50.4249H58.7217C57.9747 50.4249 57.3987 50.2537 56.9937 49.9093C56.5907 49.5629 56.3897 48.993 56.3897 48.1975V44.6007H55.6097V43.0742H56.3897V41.2577H58.2457V43.0742H59.8817V44.6007H58.2457V48.1975C58.2457 48.4372 58.3027 48.6073 58.4177 48.709C58.5317 48.8087 58.7297 48.8581 59.0097 48.8581Z" fill="#D7FFEF"/>
<path d="M64.3168 48.9507C64.8368 48.9507 65.2828 48.7594 65.6568 48.3748C66.0298 47.9911 66.2168 47.4474 66.2168 46.7435C66.2168 46.0407 66.0308 45.4989 65.6608 45.1203C65.2928 44.7397 64.8468 44.5484 64.3248 44.5484C63.8018 44.5484 63.3608 44.7397 63.0008 45.1203C62.6408 45.4989 62.4608 46.0427 62.4608 46.7516C62.4608 47.4584 62.6408 48.0022 63.0008 48.3828C63.3608 48.7614 63.7988 48.9507 64.3168 48.9507ZM61.6448 49.4824C60.9328 48.7846 60.5768 47.8703 60.5768 46.7395C60.5768 45.6067 60.9368 44.6954 61.6568 44.0046C62.3768 43.3149 63.2698 42.9695 64.3368 42.9695C65.4058 42.9695 66.3008 43.3149 67.0208 44.0046C67.7408 44.6954 68.1008 45.6067 68.1008 46.7395C68.1008 47.8703 67.7378 48.7846 67.0128 49.4824C66.2868 50.1812 65.3888 50.5296 64.3168 50.5296C63.2468 50.5296 62.3568 50.1812 61.6448 49.4824Z" fill="#D7FFEF"/>
<path d="M71.1679 43.0742V44.3752C71.6579 43.4387 72.3689 42.9695 73.2999 42.9695V44.8786H72.8399C72.2849 44.8786 71.8679 45.0186 71.5879 45.2975C71.3079 45.5775 71.1679 46.0568 71.1679 46.7355V50.4249H69.3079V43.0742H71.1679Z" fill="#D7FFEF"/>
<path d="M77.4358 50.5296C76.3718 50.5296 75.5058 50.1832 74.8398 49.4905C74.1728 48.7957 73.8398 47.8773 73.8398 46.7355C73.8398 45.5946 74.1758 44.6813 74.8478 43.9966C75.5198 43.3118 76.3888 42.9695 77.4558 42.9695C78.5218 42.9695 79.3978 43.3038 80.0838 43.9724C80.7688 44.639 81.1118 45.5291 81.1118 46.6428C81.1118 46.9006 81.0938 47.1402 81.0598 47.3598H75.7358C75.7778 47.8381 75.9528 48.2237 76.2598 48.5157C76.5688 48.8057 76.9608 48.9507 77.4358 48.9507C78.0758 48.9507 78.5498 48.6869 78.8598 48.1573H80.8598C80.6488 48.8561 80.2408 49.426 79.6358 49.8691C79.0298 50.3101 78.2968 50.5296 77.4358 50.5296ZM79.1878 46.1514C79.1608 45.6661 78.9818 45.2774 78.6518 44.9874C78.3238 44.6954 77.9258 44.5484 77.4598 44.5484C76.9958 44.5484 76.6078 44.6954 76.2958 44.9874C75.9838 45.2774 75.7968 45.6661 75.7358 46.1514H79.1878Z" fill="#D7FFEF"/>
<path d="M38.5285 52.7665V56.4519H37.9725V52.7665H36.5605V52.3073H39.9405V52.7665H38.5285Z" fill="#D7FFEF"/>
<path d="M45.1649 54.3615C45.1649 54.7945 45.0819 55.1741 44.9169 55.5014C44.7539 55.8266 44.5179 56.0763 44.2089 56.2505C43.9019 56.4257 43.5389 56.5123 43.1209 56.5123C42.6969 56.5123 42.3309 56.4267 42.0249 56.2546C41.7179 56.0804 41.4829 55.8306 41.3209 55.5054C41.1609 55.1781 41.0809 54.7965 41.0809 54.3615C41.0809 53.6989 41.2609 53.1804 41.6209 52.8068C41.9809 52.4312 42.4819 52.2429 43.1249 52.2429C43.5429 52.2429 43.9059 52.3275 44.2129 52.4966C44.5219 52.6638 44.7579 52.9065 44.9209 53.2257C45.0829 53.5459 45.1649 53.9245 45.1649 54.3615ZM44.5969 54.3615C44.5969 53.8459 44.4669 53.4412 44.2089 53.1451C43.9529 52.8501 43.5909 52.7021 43.1249 52.7021C42.6529 52.7021 42.2889 52.8491 42.0329 53.1411C41.7769 53.4311 41.6489 53.8379 41.6489 54.3615C41.6489 54.8801 41.7779 55.2919 42.0369 55.598C42.2979 55.9021 42.6589 56.0532 43.1209 56.0532C43.5949 56.0532 43.9589 55.9072 44.2129 55.6141C44.4689 55.3191 44.5969 54.9012 44.5969 54.3615Z" fill="#D7FFEF"/>
<path d="M50.5363 54.3615C50.5363 54.7945 50.4533 55.1741 50.2883 55.5014C50.1253 55.8266 49.8893 56.0763 49.5803 56.2505C49.2733 56.4257 48.9103 56.5123 48.4923 56.5123C48.0683 56.5123 47.7023 56.4267 47.3963 56.2546C47.0893 56.0804 46.8543 55.8306 46.6923 55.5054C46.5323 55.1781 46.4523 54.7965 46.4523 54.3615C46.4523 53.6989 46.6323 53.1804 46.9923 52.8068C47.3523 52.4312 47.8533 52.2429 48.4963 52.2429C48.9143 52.2429 49.2773 52.3275 49.5843 52.4966C49.8933 52.6638 50.1293 52.9065 50.2923 53.2257C50.4543 53.5459 50.5363 53.9245 50.5363 54.3615ZM49.9683 54.3615C49.9683 53.8459 49.8383 53.4412 49.5803 53.1451C49.3243 52.8501 48.9623 52.7021 48.4963 52.7021C48.0243 52.7021 47.6603 52.8491 47.4043 53.1411C47.1483 53.4311 47.0203 53.8379 47.0203 54.3615C47.0203 54.8801 47.1493 55.2919 47.4083 55.598C47.6693 55.9021 48.0303 56.0532 48.4923 56.0532C48.9663 56.0532 49.3303 55.9072 49.5843 55.6141C49.8403 55.3191 49.9683 54.9012 49.9683 54.3615Z" fill="#D7FFEF"/>
<path d="M52.0315 56.4519V52.3073H52.5875V55.9927H54.6675V56.4519H52.0315Z" fill="#D7FFEF"/>
<path d="M59.3007 55.308C59.3007 55.6897 59.1507 55.9867 58.8527 56.1982C58.5567 56.4076 58.1387 56.5123 57.6007 56.5123C56.5977 56.5123 56.0167 56.1609 55.8567 55.4571L56.3967 55.3483C56.4577 55.598 56.5897 55.7823 56.7927 55.9001C56.9947 56.0159 57.2707 56.0733 57.6207 56.0733C57.9807 56.0733 58.2577 56.0119 58.4527 55.888C58.6497 55.7622 58.7487 55.5779 58.7487 55.3362C58.7487 55.2023 58.7177 55.0935 58.6567 55.01C58.5947 54.9244 58.5087 54.8549 58.3967 54.8005C58.2867 54.7441 58.1547 54.6978 58.0007 54.6596C57.8457 54.6223 57.6747 54.582 57.4887 54.5387C57.1627 54.4662 56.9167 54.3937 56.7487 54.3212C56.5807 54.2487 56.4467 54.1682 56.3487 54.0796C56.2527 53.9909 56.1777 53.8882 56.1247 53.7694C56.0737 53.6486 56.0487 53.5106 56.0487 53.3546C56.0487 53.0001 56.1827 52.7262 56.4527 52.5329C56.7217 52.3396 57.1087 52.2429 57.6127 52.2429C58.0787 52.2429 58.4367 52.3154 58.6847 52.4604C58.9327 52.6054 59.1057 52.8511 59.2047 53.1975L58.6567 53.2941C58.5947 53.0746 58.4787 52.9155 58.3087 52.8189C58.1407 52.7202 57.9057 52.6698 57.6047 52.6698C57.2767 52.6698 57.0257 52.7252 56.8527 52.835C56.6787 52.9427 56.5927 53.1068 56.5927 53.3264C56.5927 53.4532 56.6257 53.558 56.6927 53.6405C56.7587 53.7241 56.8547 53.7956 56.9807 53.854C57.1087 53.9104 57.3617 53.9819 57.7407 54.0675C57.8687 54.0977 57.9947 54.1269 58.1207 54.1561C58.2457 54.1863 58.3657 54.2225 58.4807 54.2648C58.5947 54.3081 58.7017 54.3575 58.8007 54.4139C58.9017 54.4703 58.9897 54.5407 59.0647 54.6233C59.1387 54.7039 59.1967 54.8005 59.2367 54.9133C59.2787 55.0261 59.3007 55.158 59.3007 55.308Z" fill="#D7FFEF"/>
</svg>
