<svg width="12" height="12" viewBox="0 0 12 12" fill="none" xmlns="http://www.w3.org/2000/svg">
<path d="M9.39562 10.7289C9.56884 10.9021 9.80378 10.9994 10.0488 10.9994C10.2937 10.9994 10.5287 10.9021 10.7019 10.7289C10.8751 10.5556 10.9724 10.3207 10.9724 10.0757C10.9724 9.83076 10.8751 9.59582 10.7019 9.42259L7.28995 6.01207L10.7019 2.60012C10.7934 2.51603 10.867 2.41429 10.9182 2.30102C10.9694 2.18775 10.9972 2.0653 10.9998 1.94103C11.0024 1.81675 10.9799 1.69323 10.9335 1.5779C10.8872 1.46256 10.818 1.35779 10.7301 1.2699C10.6422 1.18201 10.5374 1.1128 10.4221 1.06646C10.3068 1.02011 10.1832 0.997573 10.059 1.00021C9.9347 1.00284 9.81225 1.03059 9.69898 1.08179C9.58571 1.13298 9.48397 1.20656 9.39988 1.2981L5.98793 4.71005L2.58025 1.29526C2.49429 1.2093 2.39224 1.14112 2.27993 1.0946C2.16762 1.04808 2.04725 1.02413 1.92569 1.02413C1.80412 1.02413 1.68375 1.04808 1.57144 1.0946C1.45913 1.14112 1.35709 1.2093 1.27113 1.29526C1.18517 1.38122 1.11698 1.48326 1.07046 1.59557C1.02394 1.70788 1 1.82826 1 1.94982C1 2.07138 1.02394 2.19176 1.07046 2.30406C1.11698 2.41637 1.18517 2.51842 1.27113 2.60438L4.68591 6.01207L1.27113 9.41975C1.18517 9.50571 1.11698 9.60776 1.07046 9.72007C1.02394 9.83238 1 9.95275 1 10.0743C1 10.1959 1.02394 10.3162 1.07046 10.4286C1.11698 10.5409 1.18517 10.6429 1.27113 10.7289C1.35709 10.8148 1.45913 10.883 1.57144 10.9295C1.68375 10.9761 1.80412 11 1.92569 11C2.04725 11 2.16762 10.9761 2.27993 10.9295C2.39224 10.883 2.49429 10.8148 2.58025 10.7289L5.98793 7.31409L9.39562 10.7289Z" fill="#EE6A6A" stroke="#EE6A6A" stroke-width="0.4"/>
</svg>
